<?xml version="1.0" encoding="utf-8"?>
<svg viewBox="0 0 512 512" xmlns="http://www.w3.org/2000/svg">
  <path fill="#272830" d="M 19.428 187.392 C 21.789 194.475 19.378 201.624 14.045 203.374 C 8.712 205.125 2.471 200.798 0.11 193.716 C -2.251 186.632 0.16 179.483 5.493 177.733 C 10.825 175.983 17.067 180.309 19.428 187.392 Z M -1.392 204.844 C 1.728 210.194 0.968 216.418 -3.077 218.729 C -7.122 221.042 -12.934 218.581 -16.037 213.231 C -19.142 207.883 -18.416 201.658 -14.37 199.346 C -10.325 197.035 -4.513 199.495 -1.409 204.844 L -1.392 204.844 Z M -6.544 238.295 C 2.108 214.966 17.479 209.038 24.298 209.038 C 31.118 209.038 46.489 214.966 55.142 238.295 C 55.735 239.896 55.999 241.614 55.999 243.331 L 55.999 243.596 C 55.999 247.855 52.549 251.305 48.289 251.305 C 46.39 251.305 44.508 251.075 42.675 250.613 L 28.145 246.981 C 25.619 246.353 22.978 246.353 20.452 246.981 L 5.922 250.613 C 4.089 251.075 2.206 251.305 0.308 251.305 C -3.952 251.305 -7.402 247.855 -7.402 243.596 L -7.402 243.331 C -7.402 241.614 -7.138 239.896 -6.544 238.295 Z M 51.673 218.729 C 47.628 216.418 46.869 210.194 49.99 204.844 C 53.11 199.495 58.906 197.035 62.951 199.346 C 66.996 201.658 67.755 207.883 64.635 213.231 C 61.514 218.581 55.718 221.042 51.673 218.729 Z M 33.231 203.374 C 27.898 201.624 25.487 194.475 27.849 187.392 C 30.209 180.309 36.451 175.983 41.784 177.733 C 47.117 179.483 49.527 186.632 47.166 193.716 C 44.805 200.798 38.564 205.125 33.231 203.374 Z" style="transform-box: fill-box; transform-origin: 50% 50%;" transform="matrix(0.882948, 0.469471, -0.469471, 0.882948, 0.000004, 0.000001)"/>
  <path fill="#272830" d="M 66.434 103.405 C 68.795 110.488 66.384 117.637 61.051 119.387 C 55.718 121.138 49.477 116.811 47.116 109.729 C 44.755 102.645 47.166 95.496 52.499 93.746 C 57.831 91.996 64.073 96.322 66.434 103.405 Z M 45.614 120.857 C 48.734 126.207 47.974 132.431 43.929 134.742 C 39.884 137.055 34.072 134.594 30.969 129.244 C 27.864 123.896 28.59 117.671 32.636 115.359 C 36.681 113.048 42.493 115.508 45.597 120.857 L 45.614 120.857 Z M 40.462 154.308 C 49.114 130.979 64.485 125.051 71.304 125.051 C 78.124 125.051 93.495 130.979 102.148 154.308 C 102.741 155.909 103.005 157.627 103.005 159.344 L 103.005 159.609 C 103.005 163.868 99.555 167.318 95.295 167.318 C 93.396 167.318 91.514 167.088 89.681 166.626 L 75.151 162.994 C 72.625 162.366 69.984 162.366 67.458 162.994 L 52.928 166.626 C 51.095 167.088 49.212 167.318 47.314 167.318 C 43.054 167.318 39.604 163.868 39.604 159.609 L 39.604 159.344 C 39.604 157.627 39.868 155.909 40.462 154.308 Z M 98.679 134.742 C 94.634 132.431 93.875 126.207 96.996 120.857 C 100.116 115.508 105.912 113.048 109.957 115.359 C 114.002 117.671 114.761 123.896 111.641 129.244 C 108.52 134.594 102.724 137.055 98.679 134.742 Z M 80.237 119.387 C 74.904 117.637 72.493 110.488 74.855 103.405 C 77.215 96.322 83.457 91.996 88.79 93.746 C 94.123 95.496 96.533 102.645 94.172 109.729 C 91.811 116.811 85.57 121.138 80.237 119.387 Z" style="transform-origin: 71.305px 130.338px;" transform="matrix(0.927184, 0.374606, -0.374606, 0.927184, 0, 0.000002)"/>
  <path fill="#272830" d="M 105.595 11.643 C 107.956 18.726 105.545 25.875 100.212 27.625 C 94.879 29.376 88.638 25.049 86.277 17.967 C 83.916 10.883 86.327 3.734 91.66 1.984 C 96.992 0.234 103.234 4.56 105.595 11.643 Z M 84.775 29.095 C 87.895 34.445 87.135 40.669 83.09 42.98 C 79.045 45.293 73.233 42.832 70.13 37.482 C 67.025 32.134 67.751 25.909 71.797 23.597 C 75.842 21.286 81.654 23.746 84.758 29.095 L 84.775 29.095 Z M 79.623 62.546 C 88.275 39.217 103.646 33.289 110.465 33.289 C 117.285 33.289 132.656 39.217 141.309 62.546 C 141.902 64.147 142.166 65.865 142.166 67.582 L 142.166 67.847 C 142.166 72.106 138.716 75.556 134.456 75.556 C 132.557 75.556 130.675 75.326 128.842 74.864 L 114.312 71.232 C 111.786 70.604 109.145 70.604 106.619 71.232 L 92.089 74.864 C 90.256 75.326 88.373 75.556 86.475 75.556 C 82.215 75.556 78.765 72.106 78.765 67.847 L 78.765 67.582 C 78.765 65.865 79.029 64.147 79.623 62.546 Z M 137.84 42.98 C 133.795 40.669 133.036 34.445 136.157 29.095 C 139.277 23.746 145.073 21.286 149.118 23.597 C 153.163 25.909 153.922 32.134 150.802 37.482 C 147.681 42.832 141.885 45.293 137.84 42.98 Z M 119.398 27.625 C 114.065 25.875 111.654 18.726 114.016 11.643 C 116.376 4.56 122.618 0.234 127.951 1.984 C 133.284 3.734 135.694 10.883 133.333 17.967 C 130.972 25.049 124.731 29.376 119.398 27.625 Z" style="transform-origin: 110.466px 38.576px;" transform="matrix(0.970296, 0.241921, -0.241921, 0.970296, 0, 0)"/>
  <path fill="#272830" d="M 55.914 424.867 C 58.275 431.95 55.864 439.099 50.531 440.849 C 45.198 442.6 38.957 438.273 36.596 431.191 C 34.235 424.107 36.646 416.958 41.979 415.208 C 47.311 413.458 53.553 417.784 55.914 424.867 Z M 35.094 442.319 C 38.214 447.669 37.454 453.893 33.409 456.204 C 29.364 458.517 23.552 456.056 20.449 450.706 C 17.344 445.358 18.07 439.133 22.116 436.821 C 26.161 434.51 31.973 436.97 35.077 442.319 L 35.094 442.319 Z M 29.942 475.77 C 38.594 452.441 53.965 446.513 60.784 446.513 C 67.604 446.513 82.975 452.441 91.628 475.77 C 92.221 477.371 92.485 479.089 92.485 480.806 L 92.485 481.071 C 92.485 485.33 89.035 488.78 84.775 488.78 C 82.876 488.78 80.994 488.55 79.161 488.088 L 64.631 484.456 C 62.105 483.828 59.464 483.828 56.938 484.456 L 42.408 488.088 C 40.575 488.55 38.692 488.78 36.794 488.78 C 32.534 488.78 29.084 485.33 29.084 481.071 L 29.084 480.806 C 29.084 479.089 29.348 477.371 29.942 475.77 Z M 88.159 456.204 C 84.114 453.893 83.355 447.669 86.476 442.319 C 89.596 436.97 95.392 434.51 99.437 436.821 C 103.482 439.133 104.241 445.358 101.121 450.706 C 98 456.056 92.204 458.517 88.159 456.204 Z M 69.717 440.849 C 64.384 439.099 61.973 431.95 64.335 424.867 C 66.695 417.784 72.937 413.458 78.27 415.208 C 83.603 416.958 86.013 424.107 83.652 431.191 C 81.291 438.273 75.05 442.6 69.717 440.849 Z" style="transform-origin: 60.785px 451.8px;" transform="matrix(0.882948, 0.469471, -0.469471, 0.882948, 0.00001, 0.000003)"/>
  <path fill="#272830" d="M 120.207 349.469 C 122.568 356.552 120.157 363.701 114.824 365.451 C 109.491 367.202 103.25 362.875 100.889 355.793 C 98.528 348.709 100.939 341.56 106.272 339.81 C 111.604 338.06 117.846 342.386 120.207 349.469 Z M 99.387 366.921 C 102.507 372.271 101.747 378.495 97.702 380.806 C 93.657 383.119 87.845 380.658 84.742 375.308 C 81.637 369.96 82.363 363.735 86.409 361.423 C 90.454 359.112 96.266 361.572 99.37 366.921 L 99.387 366.921 Z M 94.235 400.372 C 102.887 377.043 118.258 371.115 125.077 371.115 C 131.897 371.115 147.268 377.043 155.921 400.372 C 156.514 401.973 156.778 403.691 156.778 405.408 L 156.778 405.673 C 156.778 409.932 153.328 413.382 149.068 413.382 C 147.169 413.382 145.287 413.152 143.454 412.69 L 128.924 409.058 C 126.398 408.43 123.757 408.43 121.231 409.058 L 106.701 412.69 C 104.868 413.152 102.985 413.382 101.087 413.382 C 96.827 413.382 93.377 409.932 93.377 405.673 L 93.377 405.408 C 93.377 403.691 93.641 401.973 94.235 400.372 Z M 152.452 380.806 C 148.407 378.495 147.648 372.271 150.769 366.921 C 153.889 361.572 159.685 359.112 163.73 361.423 C 167.775 363.735 168.534 369.96 165.414 375.308 C 162.293 380.658 156.497 383.119 152.452 380.806 Z M 134.01 365.451 C 128.677 363.701 126.266 356.552 128.628 349.469 C 130.988 342.386 137.23 338.06 142.563 339.81 C 147.896 341.56 150.306 348.709 147.945 355.793 C 145.584 362.875 139.343 367.202 134.01 365.451 Z" style="transform-origin: 125.078px 376.402px;" transform="matrix(0.642788, 0.766044, -0.766044, 0.642788, -0.000008, -0.000009)"/>
  <path fill="#272830" d="M 213.139 301.542 C 215.5 308.625 213.089 315.774 207.756 317.524 C 202.423 319.275 196.182 314.948 193.821 307.866 C 191.46 300.782 193.871 293.633 199.204 291.883 C 204.536 290.133 210.778 294.459 213.139 301.542 Z M 192.319 318.994 C 195.439 324.344 194.679 330.568 190.634 332.879 C 186.589 335.192 180.777 332.731 177.674 327.381 C 174.569 322.033 175.295 315.808 179.341 313.496 C 183.386 311.185 189.198 313.645 192.302 318.994 L 192.319 318.994 Z M 187.167 352.445 C 195.819 329.116 211.19 323.188 218.009 323.188 C 224.829 323.188 240.2 329.116 248.853 352.445 C 249.446 354.046 249.71 355.764 249.71 357.481 L 249.71 357.746 C 249.71 362.005 246.26 365.455 242 365.455 C 240.101 365.455 238.219 365.225 236.386 364.763 L 221.856 361.131 C 219.33 360.503 216.689 360.503 214.163 361.131 L 199.633 364.763 C 197.8 365.225 195.917 365.455 194.019 365.455 C 189.759 365.455 186.309 362.005 186.309 357.746 L 186.309 357.481 C 186.309 355.764 186.573 354.046 187.167 352.445 Z M 245.384 332.879 C 241.339 330.568 240.58 324.344 243.701 318.994 C 246.821 313.645 252.617 311.185 256.662 313.496 C 260.707 315.808 261.466 322.033 258.346 327.381 C 255.225 332.731 249.429 335.192 245.384 332.879 Z M 226.942 317.524 C 221.609 315.774 219.198 308.625 221.56 301.542 C 223.92 294.459 230.162 290.133 235.495 291.883 C 240.828 293.633 243.238 300.782 240.877 307.866 C 238.516 314.948 232.275 319.275 226.942 317.524 Z" style="transform-origin: 218.01px 328.475px;" transform="matrix(0.438372, 0.898794, -0.898794, 0.438372, 0.000014, -0.000003)"/>
  <path fill="#272830" d="M 316.006 292.191 C 318.367 299.274 315.956 306.423 310.623 308.173 C 305.29 309.924 299.049 305.597 296.688 298.515 C 294.327 291.431 296.738 284.282 302.071 282.532 C 307.403 280.782 313.645 285.108 316.006 292.191 Z M 295.186 309.643 C 298.306 314.993 297.546 321.217 293.501 323.528 C 289.456 325.841 283.644 323.38 280.541 318.03 C 277.436 312.682 278.162 306.457 282.208 304.145 C 286.253 301.834 292.065 304.294 295.169 309.643 L 295.186 309.643 Z M 290.034 343.094 C 298.686 319.765 314.057 313.837 320.876 313.837 C 327.696 313.837 343.067 319.765 351.72 343.094 C 352.313 344.695 352.577 346.413 352.577 348.13 L 352.577 348.395 C 352.577 352.654 349.127 356.104 344.867 356.104 C 342.968 356.104 341.086 355.874 339.253 355.412 L 324.723 351.78 C 322.197 351.152 319.556 351.152 317.03 351.78 L 302.5 355.412 C 300.667 355.874 298.784 356.104 296.886 356.104 C 292.626 356.104 289.176 352.654 289.176 348.395 L 289.176 348.13 C 289.176 346.413 289.44 344.695 290.034 343.094 Z M 348.251 323.528 C 344.206 321.217 343.447 314.993 346.568 309.643 C 349.688 304.294 355.484 301.834 359.529 304.145 C 363.574 306.457 364.333 312.682 361.213 318.03 C 358.092 323.38 352.296 325.841 348.251 323.528 Z M 329.809 308.173 C 324.476 306.423 322.065 299.274 324.427 292.191 C 326.787 285.108 333.029 280.782 338.362 282.532 C 343.695 284.282 346.105 291.431 343.744 298.515 C 341.383 305.597 335.142 309.924 329.809 308.173 Z" style="transform-origin: 320.877px 319.124px;" transform="matrix(0.017453, 0.999848, -0.999848, 0.017453, -0.000034, 0.000025)"/>
  <path fill="#272830" d="M 412.444 266.474 C 414.805 273.557 412.394 280.706 407.061 282.456 C 401.728 284.207 395.487 279.88 393.126 272.798 C 390.765 265.714 393.176 258.565 398.509 256.815 C 403.841 255.065 410.083 259.391 412.444 266.474 Z M 391.624 283.926 C 394.744 289.276 393.984 295.5 389.939 297.811 C 385.894 300.124 380.082 297.663 376.979 292.313 C 373.874 286.965 374.6 280.74 378.646 278.428 C 382.691 276.117 388.503 278.577 391.607 283.926 L 391.624 283.926 Z M 386.472 317.377 C 395.124 294.048 410.495 288.12 417.314 288.12 C 424.134 288.12 439.505 294.048 448.158 317.377 C 448.751 318.978 449.015 320.696 449.015 322.413 L 449.015 322.678 C 449.015 326.937 445.565 330.387 441.305 330.387 C 439.406 330.387 437.524 330.157 435.691 329.695 L 421.161 326.063 C 418.635 325.435 415.994 325.435 413.468 326.063 L 398.938 329.695 C 397.105 330.157 395.222 330.387 393.324 330.387 C 389.064 330.387 385.614 326.937 385.614 322.678 L 385.614 322.413 C 385.614 320.696 385.878 318.978 386.472 317.377 Z M 444.689 297.811 C 440.644 295.5 439.885 289.276 443.006 283.926 C 446.126 278.577 451.922 276.117 455.967 278.428 C 460.012 280.74 460.771 286.965 457.651 292.313 C 454.53 297.663 448.734 300.124 444.689 297.811 Z M 426.247 282.456 C 420.914 280.706 418.503 273.557 420.865 266.474 C 423.225 259.391 429.467 255.065 434.8 256.815 C 440.133 258.565 442.543 265.714 440.182 272.798 C 437.821 279.88 431.58 284.207 426.247 282.456 Z" style="transform-origin: 417.316px 293.407px;" transform="matrix(0.573577, 0.819152, -0.819152, 0.573577, -0.000032, 0.000004)"/>
  <path fill="#272830" d="M 460.955 182.893 C 463.316 189.976 460.905 197.125 455.572 198.875 C 450.239 200.626 443.998 196.299 441.637 189.217 C 439.276 182.133 441.687 174.984 447.02 173.234 C 452.352 171.484 458.594 175.81 460.955 182.893 Z M 440.135 200.345 C 443.255 205.695 442.495 211.919 438.45 214.23 C 434.405 216.543 428.593 214.082 425.49 208.732 C 422.385 203.384 423.111 197.159 427.157 194.847 C 431.202 192.536 437.014 194.996 440.118 200.345 L 440.135 200.345 Z M 434.983 233.796 C 443.635 210.467 459.006 204.539 465.825 204.539 C 472.645 204.539 488.016 210.467 496.669 233.796 C 497.262 235.397 497.526 237.115 497.526 238.832 L 497.526 239.097 C 497.526 243.356 494.076 246.806 489.816 246.806 C 487.917 246.806 486.035 246.576 484.202 246.114 L 469.672 242.482 C 467.146 241.854 464.505 241.854 461.979 242.482 L 447.449 246.114 C 445.616 246.576 443.733 246.806 441.835 246.806 C 437.575 246.806 434.125 243.356 434.125 239.097 L 434.125 238.832 C 434.125 237.115 434.389 235.397 434.983 233.796 Z M 493.2 214.23 C 489.155 211.919 488.396 205.695 491.517 200.345 C 494.637 194.996 500.433 192.536 504.478 194.847 C 508.523 197.159 509.282 203.384 506.162 208.732 C 503.041 214.082 497.245 216.543 493.2 214.23 Z M 474.758 198.875 C 469.425 197.125 467.014 189.976 469.376 182.893 C 471.736 175.81 477.978 171.484 483.311 173.234 C 488.644 174.984 491.054 182.133 488.693 189.217 C 486.332 196.299 480.091 200.626 474.758 198.875 Z" style="transform-origin: 465.826px 209.826px;" transform="matrix(0.866026, 0.499999, -0.499999, 0.866026, 0.000001, -0.000015)"/>
  <path fill="#272830" d="M 330.392 186.884 C 332.753 193.967 330.342 201.116 325.009 202.866 C 319.676 204.617 313.435 200.29 311.074 193.208 C 308.713 186.124 311.124 178.975 316.457 177.225 C 321.789 175.475 328.031 179.801 330.392 186.884 Z M 309.572 204.336 C 312.692 209.686 311.932 215.91 307.887 218.221 C 303.842 220.534 298.03 218.073 294.927 212.723 C 291.822 207.375 292.548 201.15 296.594 198.838 C 300.639 196.527 306.451 198.987 309.555 204.336 L 309.572 204.336 Z M 304.42 237.787 C 313.072 214.458 328.443 208.53 335.262 208.53 C 342.082 208.53 357.453 214.458 366.106 237.787 C 366.699 239.388 366.963 241.106 366.963 242.823 L 366.963 243.088 C 366.963 247.347 363.513 250.797 359.253 250.797 C 357.354 250.797 355.472 250.567 353.639 250.105 L 339.109 246.473 C 336.583 245.845 333.942 245.845 331.416 246.473 L 316.886 250.105 C 315.053 250.567 313.17 250.797 311.272 250.797 C 307.012 250.797 303.562 247.347 303.562 243.088 L 303.562 242.823 C 303.562 241.106 303.826 239.388 304.42 237.787 Z M 362.637 218.221 C 358.592 215.91 357.833 209.686 360.954 204.336 C 364.074 198.987 369.87 196.527 373.915 198.838 C 377.96 201.15 378.719 207.375 375.599 212.723 C 372.478 218.073 366.682 220.534 362.637 218.221 Z M 344.195 202.866 C 338.862 201.116 336.451 193.967 338.813 186.884 C 341.173 179.801 347.415 175.475 352.748 177.225 C 358.081 178.975 360.491 186.124 358.13 193.208 C 355.769 200.29 349.528 204.617 344.195 202.866 Z" style="transform-origin: 335.263px 213.817px;" transform="matrix(0.990268, 0.139172, -0.139172, 0.990268, -0.000001, -0.000001)"/>
  <path fill="#272830" d="M 350.434 92.005 C 352.795 99.088 350.384 106.237 345.051 107.987 C 339.718 109.738 333.477 105.411 331.116 98.329 C 328.755 91.245 331.166 84.096 336.499 82.346 C 341.831 80.596 348.073 84.922 350.434 92.005 Z M 329.614 109.457 C 332.734 114.807 331.974 121.031 327.929 123.342 C 323.884 125.655 318.072 123.194 314.969 117.844 C 311.864 112.496 312.59 106.271 316.636 103.959 C 320.681 101.648 326.493 104.108 329.597 109.457 L 329.614 109.457 Z M 324.462 142.908 C 333.114 119.579 348.485 113.651 355.304 113.651 C 362.124 113.651 377.495 119.579 386.148 142.908 C 386.741 144.509 387.005 146.227 387.005 147.944 L 387.005 148.209 C 387.005 152.468 383.555 155.918 379.295 155.918 C 377.396 155.918 375.514 155.688 373.681 155.226 L 359.151 151.594 C 356.625 150.966 353.984 150.966 351.458 151.594 L 336.928 155.226 C 335.095 155.688 333.212 155.918 331.314 155.918 C 327.054 155.918 323.604 152.468 323.604 148.209 L 323.604 147.944 C 323.604 146.227 323.868 144.509 324.462 142.908 Z M 382.679 123.342 C 378.634 121.031 377.875 114.807 380.996 109.457 C 384.116 104.108 389.912 101.648 393.957 103.959 C 398.002 106.271 398.761 112.496 395.641 117.844 C 392.52 123.194 386.724 125.655 382.679 123.342 Z M 364.237 107.987 C 358.904 106.237 356.493 99.088 358.855 92.005 C 361.215 84.922 367.457 80.596 372.79 82.346 C 378.123 84.096 380.533 91.245 378.172 98.329 C 375.811 105.411 369.57 109.738 364.237 107.987 Z" style="transform-origin: 355.305px 118.938px;" transform="matrix(0.927184, 0.374606, -0.374606, 0.927184, 0.000002, -0.000002)"/>
  <path fill="#272830" d="M 420.623 16.224 C 422.984 23.307 420.573 30.456 415.24 32.206 C 409.907 33.957 403.666 29.63 401.305 22.548 C 398.944 15.464 401.355 8.315 406.688 6.565 C 412.02 4.815 418.262 9.141 420.623 16.224 Z M 399.803 33.676 C 402.923 39.026 402.163 45.25 398.118 47.561 C 394.073 49.874 388.261 47.413 385.158 42.063 C 382.053 36.715 382.779 30.49 386.825 28.178 C 390.87 25.867 396.682 28.327 399.786 33.676 L 399.803 33.676 Z M 394.651 67.127 C 403.303 43.798 418.674 37.87 425.493 37.87 C 432.313 37.87 447.684 43.798 456.337 67.127 C 456.93 68.728 457.194 70.446 457.194 72.163 L 457.194 72.428 C 457.194 76.687 453.744 80.137 449.484 80.137 C 447.585 80.137 445.703 79.907 443.87 79.445 L 429.34 75.813 C 426.814 75.185 424.173 75.185 421.647 75.813 L 407.117 79.445 C 405.284 79.907 403.401 80.137 401.503 80.137 C 397.243 80.137 393.793 76.687 393.793 72.428 L 393.793 72.163 C 393.793 70.446 394.057 68.728 394.651 67.127 Z M 452.868 47.561 C 448.823 45.25 448.064 39.026 451.185 33.676 C 454.305 28.327 460.101 25.867 464.146 28.178 C 468.191 30.49 468.95 36.715 465.83 42.063 C 462.709 47.413 456.913 49.874 452.868 47.561 Z M 434.426 32.206 C 429.093 30.456 426.682 23.307 429.044 16.224 C 431.404 9.141 437.646 4.815 442.979 6.565 C 448.312 8.315 450.722 15.464 448.361 22.548 C 446 29.63 439.759 33.957 434.426 32.206 Z" style="transform-origin: 425.494px 43.157px;" transform="matrix(0.681999, 0.731353, -0.731353, 0.681999, 0.000005, -0.000009)"/>
  <path fill="#272830" d="M 248.207 143.149 C 250.568 150.232 248.157 157.381 242.824 159.131 C 237.491 160.882 231.25 156.555 228.889 149.473 C 226.528 142.389 228.939 135.24 234.272 133.49 C 239.604 131.74 245.846 136.066 248.207 143.149 Z M 227.387 160.601 C 230.507 165.951 229.747 172.175 225.702 174.486 C 221.657 176.799 215.845 174.338 212.742 168.988 C 209.637 163.64 210.363 157.415 214.409 155.103 C 218.454 152.792 224.266 155.252 227.37 160.601 L 227.387 160.601 Z M 222.235 194.052 C 230.887 170.723 246.258 164.795 253.077 164.795 C 259.897 164.795 275.268 170.723 283.921 194.052 C 284.514 195.653 284.778 197.371 284.778 199.088 L 284.778 199.353 C 284.778 203.612 281.328 207.062 277.068 207.062 C 275.169 207.062 273.287 206.832 271.454 206.37 L 256.924 202.738 C 254.398 202.11 251.757 202.11 249.231 202.738 L 234.701 206.37 C 232.868 206.832 230.985 207.062 229.087 207.062 C 224.827 207.062 221.377 203.612 221.377 199.353 L 221.377 199.088 C 221.377 197.371 221.641 195.653 222.235 194.052 Z M 280.452 174.486 C 276.407 172.175 275.648 165.951 278.769 160.601 C 281.889 155.252 287.685 152.792 291.73 155.103 C 295.775 157.415 296.534 163.64 293.414 168.988 C 290.293 174.338 284.497 176.799 280.452 174.486 Z M 262.01 159.131 C 256.677 157.381 254.266 150.232 256.628 143.149 C 258.988 136.066 265.23 131.74 270.563 133.49 C 275.896 135.24 278.306 142.389 275.945 149.473 C 273.584 156.555 267.343 160.882 262.01 159.131 Z" style="transform-origin: 253.078px 170.082px;" transform="matrix(0.719339, -0.694659, 0.694659, 0.719339, -0.000005, 0)"/>
  <path fill="#272830" d="M 181.577 76.519 C 183.938 83.602 181.527 90.751 176.194 92.501 C 170.861 94.252 164.62 89.925 162.259 82.843 C 159.898 75.759 162.309 68.61 167.642 66.86 C 172.974 65.11 179.216 69.436 181.577 76.519 Z M 160.757 93.971 C 163.877 99.321 163.117 105.545 159.072 107.856 C 155.027 110.169 149.215 107.708 146.112 102.358 C 143.007 97.01 143.733 90.785 147.779 88.473 C 151.824 86.162 157.636 88.622 160.74 93.971 L 160.757 93.971 Z M 155.605 127.422 C 164.257 104.093 179.628 98.165 186.447 98.165 C 193.267 98.165 208.638 104.093 217.291 127.422 C 217.884 129.023 218.148 130.741 218.148 132.458 L 218.148 132.723 C 218.148 136.982 214.698 140.432 210.438 140.432 C 208.539 140.432 206.657 140.202 204.824 139.74 L 190.294 136.108 C 187.768 135.48 185.127 135.48 182.601 136.108 L 168.071 139.74 C 166.238 140.202 164.355 140.432 162.457 140.432 C 158.197 140.432 154.747 136.982 154.747 132.723 L 154.747 132.458 C 154.747 130.741 155.011 129.023 155.605 127.422 Z M 213.822 107.856 C 209.777 105.545 209.018 99.321 212.139 93.971 C 215.259 88.622 221.055 86.162 225.1 88.473 C 229.145 90.785 229.904 97.01 226.784 102.358 C 223.663 107.708 217.867 110.169 213.822 107.856 Z M 195.38 92.501 C 190.047 90.751 187.636 83.602 189.998 76.519 C 192.358 69.436 198.6 65.11 203.933 66.86 C 209.266 68.61 211.676 75.759 209.315 82.843 C 206.954 89.925 200.713 94.252 195.38 92.501 Z" style="transform-origin: 186.448px 103.452px;" transform="matrix(0.719339, -0.694659, 0.694659, 0.719339, 0.000004, 0.000001)"/>
  <path fill="#272830" d="M 263.987 386.875 C 266.348 393.958 263.937 401.107 258.604 402.857 C 253.271 404.608 247.03 400.281 244.669 393.199 C 242.308 386.115 244.719 378.966 250.052 377.216 C 255.384 375.466 261.626 379.792 263.987 386.875 Z M 243.167 404.327 C 246.287 409.677 245.527 415.901 241.482 418.212 C 237.437 420.525 231.625 418.064 228.522 412.714 C 225.417 407.366 226.143 401.141 230.189 398.829 C 234.234 396.518 240.046 398.978 243.15 404.327 L 243.167 404.327 Z M 238.015 437.778 C 246.667 414.449 262.038 408.521 268.857 408.521 C 275.677 408.521 291.048 414.449 299.701 437.778 C 300.294 439.379 300.558 441.097 300.558 442.814 L 300.558 443.079 C 300.558 447.338 297.108 450.788 292.848 450.788 C 290.949 450.788 289.067 450.558 287.234 450.096 L 272.704 446.464 C 270.178 445.836 267.537 445.836 265.011 446.464 L 250.481 450.096 C 248.648 450.558 246.765 450.788 244.867 450.788 C 240.607 450.788 237.157 447.338 237.157 443.079 L 237.157 442.814 C 237.157 441.097 237.421 439.379 238.015 437.778 Z M 296.232 418.212 C 292.187 415.901 291.428 409.677 294.549 404.327 C 297.669 398.978 303.465 396.518 307.51 398.829 C 311.555 401.141 312.314 407.366 309.194 412.714 C 306.073 418.064 300.277 420.525 296.232 418.212 Z M 277.79 402.857 C 272.457 401.107 270.046 393.958 272.408 386.875 C 274.768 379.792 281.01 375.466 286.343 377.216 C 291.676 378.966 294.086 386.115 291.725 393.199 C 289.364 400.281 283.123 404.608 277.79 402.857 Z" style="transform-origin: 268.858px 413.808px;" transform="matrix(-0.743144, 0.669131, -0.669131, -0.743144, -0.000009, -0.000028)"/>
  <path fill="#272830" d="M 321.265 462.272 C 323.626 469.355 321.215 476.504 315.882 478.254 C 310.549 480.005 304.308 475.678 301.947 468.596 C 299.586 461.512 301.997 454.363 307.33 452.613 C 312.662 450.863 318.904 455.189 321.265 462.272 Z M 300.445 479.724 C 303.565 485.074 302.805 491.298 298.76 493.609 C 294.715 495.922 288.903 493.461 285.8 488.111 C 282.695 482.763 283.421 476.538 287.467 474.226 C 291.512 471.915 297.324 474.375 300.428 479.724 L 300.445 479.724 Z M 295.293 513.175 C 303.945 489.846 319.316 483.918 326.135 483.918 C 332.955 483.918 348.326 489.846 356.979 513.175 C 357.572 514.776 357.836 516.494 357.836 518.211 L 357.836 518.476 C 357.836 522.735 354.386 526.185 350.126 526.185 C 348.227 526.185 346.345 525.955 344.512 525.493 L 329.982 521.861 C 327.456 521.233 324.815 521.233 322.289 521.861 L 307.759 525.493 C 305.926 525.955 304.043 526.185 302.145 526.185 C 297.885 526.185 294.435 522.735 294.435 518.476 L 294.435 518.211 C 294.435 516.494 294.699 514.776 295.293 513.175 Z M 353.51 493.609 C 349.465 491.298 348.706 485.074 351.827 479.724 C 354.947 474.375 360.743 471.915 364.788 474.226 C 368.833 476.538 369.592 482.763 366.472 488.111 C 363.351 493.461 357.555 495.922 353.51 493.609 Z M 335.068 478.254 C 329.735 476.504 327.324 469.355 329.686 462.272 C 332.046 455.189 338.288 450.863 343.621 452.613 C 348.954 454.363 351.364 461.512 349.003 468.596 C 346.642 475.678 340.401 480.005 335.068 478.254 Z" style="transform-origin: 326.136px 489.205px;" transform="matrix(-0.83867, 0.54464, -0.54464, -0.83867, 0.000059, 0.000038)"/>
  <path fill="#272830" d="M 380.883 383.952 C 383.244 391.035 380.833 398.184 375.5 399.934 C 370.167 401.685 363.926 397.358 361.565 390.276 C 359.204 383.192 361.615 376.043 366.948 374.293 C 372.28 372.543 378.522 376.869 380.883 383.952 Z M 360.063 401.404 C 363.183 406.754 362.423 412.978 358.378 415.289 C 354.333 417.602 348.521 415.141 345.418 409.791 C 342.313 404.443 343.039 398.218 347.085 395.906 C 351.13 393.595 356.942 396.055 360.046 401.404 L 360.063 401.404 Z M 354.911 434.855 C 363.563 411.526 378.934 405.598 385.753 405.598 C 392.573 405.598 407.944 411.526 416.597 434.855 C 417.19 436.456 417.454 438.174 417.454 439.891 L 417.454 440.156 C 417.454 444.415 414.004 447.865 409.744 447.865 C 407.845 447.865 405.963 447.635 404.13 447.173 L 389.6 443.541 C 387.074 442.913 384.433 442.913 381.907 443.541 L 367.377 447.173 C 365.544 447.635 363.661 447.865 361.763 447.865 C 357.503 447.865 354.053 444.415 354.053 440.156 L 354.053 439.891 C 354.053 438.174 354.317 436.456 354.911 434.855 Z M 413.128 415.289 C 409.083 412.978 408.324 406.754 411.445 401.404 C 414.565 396.055 420.361 393.595 424.406 395.906 C 428.451 398.218 429.21 404.443 426.09 409.791 C 422.969 415.141 417.173 417.602 413.128 415.289 Z M 394.686 399.934 C 389.353 398.184 386.942 391.035 389.304 383.952 C 391.664 376.869 397.906 372.543 403.239 374.293 C 408.572 376.043 410.982 383.192 408.621 390.276 C 406.26 397.358 400.019 401.685 394.686 399.934 Z" style="transform-origin: 385.754px 410.885px;" transform="matrix(0.173649, 0.984808, -0.984808, 0.173649, -0.000002, 0.000017)"/>
  <path fill="#272830" d="M 478.489 417.852 C 480.85 424.935 478.439 432.084 473.106 433.834 C 467.773 435.585 461.532 431.258 459.171 424.176 C 456.81 417.092 459.221 409.943 464.554 408.193 C 469.886 406.443 476.128 410.769 478.489 417.852 Z M 457.669 435.304 C 460.789 440.654 460.029 446.878 455.984 449.189 C 451.939 451.502 446.127 449.041 443.024 443.691 C 439.919 438.343 440.645 432.118 444.691 429.806 C 448.736 427.495 454.548 429.955 457.652 435.304 L 457.669 435.304 Z M 452.517 468.755 C 461.169 445.426 476.54 439.498 483.359 439.498 C 490.179 439.498 505.55 445.426 514.203 468.755 C 514.796 470.356 515.06 472.074 515.06 473.791 L 515.06 474.056 C 515.06 478.315 511.61 481.765 507.35 481.765 C 505.451 481.765 503.569 481.535 501.736 481.073 L 487.206 477.441 C 484.68 476.813 482.039 476.813 479.513 477.441 L 464.983 481.073 C 463.15 481.535 461.267 481.765 459.369 481.765 C 455.109 481.765 451.659 478.315 451.659 474.056 L 451.659 473.791 C 451.659 472.074 451.923 470.356 452.517 468.755 Z M 510.734 449.189 C 506.689 446.878 505.93 440.654 509.051 435.304 C 512.171 429.955 517.967 427.495 522.012 429.806 C 526.057 432.118 526.816 438.343 523.696 443.691 C 520.575 449.041 514.779 451.502 510.734 449.189 Z M 492.292 433.834 C 486.959 432.084 484.548 424.935 486.91 417.852 C 489.27 410.769 495.512 406.443 500.845 408.193 C 506.178 409.943 508.588 417.092 506.227 424.176 C 503.866 431.258 497.625 435.585 492.292 433.834 Z" style="transform-origin: 483.36px 444.785px;" transform="matrix(-0.601814, 0.798636, -0.798636, -0.601814, 0.000038, -0.000044)"/>
  <path fill="#272830" d="M 123.128 229.067 C 125.489 236.15 123.078 243.299 117.745 245.049 C 112.412 246.8 106.171 242.473 103.81 235.391 C 101.449 228.307 103.86 221.158 109.193 219.408 C 114.525 217.658 120.767 221.984 123.128 229.067 Z M 102.308 246.519 C 105.428 251.869 104.668 258.093 100.623 260.404 C 96.578 262.717 90.766 260.256 87.663 254.906 C 84.558 249.558 85.284 243.333 89.33 241.021 C 93.375 238.71 99.187 241.17 102.291 246.519 L 102.308 246.519 Z M 97.156 279.97 C 105.808 256.641 121.179 250.713 127.998 250.713 C 134.818 250.713 150.189 256.641 158.842 279.97 C 159.435 281.571 159.699 283.289 159.699 285.006 L 159.699 285.271 C 159.699 289.53 156.249 292.98 151.989 292.98 C 150.09 292.98 148.208 292.75 146.375 292.288 L 131.845 288.656 C 129.319 288.028 126.678 288.028 124.152 288.656 L 109.622 292.288 C 107.789 292.75 105.906 292.98 104.008 292.98 C 99.748 292.98 96.298 289.53 96.298 285.271 L 96.298 285.006 C 96.298 283.289 96.562 281.571 97.156 279.97 Z M 155.373 260.404 C 151.328 258.093 150.569 251.869 153.69 246.519 C 156.81 241.17 162.606 238.71 166.651 241.021 C 170.696 243.333 171.455 249.558 168.335 254.906 C 165.214 260.256 159.418 262.717 155.373 260.404 Z M 136.931 245.049 C 131.598 243.299 129.187 236.15 131.549 229.067 C 133.909 221.984 140.151 217.658 145.484 219.408 C 150.817 221.158 153.227 228.307 150.866 235.391 C 148.505 242.473 142.264 246.8 136.931 245.049 Z" style="transform-origin: 127.999px 256px;" transform="matrix(0.743144, -0.669131, 0.669131, 0.743144, -0.000002, -0.000006)"/>
</svg>